name C:/MyDriveSym/Projects/mobilecap/Data\Session20210827_0002\mocap\ForceDataProcessed\walking2_forces.mot
datacolumns 19
datarows 27
range 0.32700000 0.34000000
endheader 
time	R_ground_force_vx	R_ground_force_vy	R_ground_force_vz	R_ground_force_px	R_ground_force_py	R_ground_force_pz	R_ground_torque_x	R_ground_torque_y	R_ground_torque_z	L_ground_force_vx	L_ground_force_vy	L_ground_force_vz	L_ground_force_px	L_ground_force_py	L_ground_force_pz	L_ground_torque_x	L_ground_torque_y	L_ground_torque_z	
          0.32700000	        -40.76646100	        536.98676300	        -29.19193500	          0.27906400	          0.00600000	         -0.14359700	          0.00000000	          0.10783000	          0.00000000	          0.00000000	          0.00000000	          0.00000000	          0.71056300	          0.00000000	         -0.24895500	          0.00000000	          0.00000000	          0.00000000	
          0.32750000	        -40.55198100	        536.35248100	        -29.12449200	          0.27926600	          0.00600000	         -0.14361900	          0.00000000	          0.09366900	          0.00000000	          0.00000000	          0.00000000	          0.00000000	          0.71056300	          0.00000000	         -0.24895500	          0.00000000	          0.00000000	          0.00000000	
          0.32800000	        -40.33762200	        535.72209500	        -29.05707000	          0.27946700	          0.00600000	         -0.14364000	          0.00000000	          0.07942800	          0.00000000	          0.00000000	          0.00000000	          0.00000000	          0.71056300	          0.00000000	         -0.24895500	          0.00000000	          0.00000000	          0.00000000	
          0.32850000	        -40.12338500	        535.09565700	        -28.98967600	          0.27966900	          0.00600000	         -0.14366200	          0.00000000	          0.06510800	          0.00000000	          0.00000000	          0.00000000	          0.00000000	          0.71056300	          0.00000000	         -0.24895500	          0.00000000	          0.00000000	          0.00000000	
          0.32900000	        -39.90926800	        534.47321900	        -28.92231600	          0.27987000	          0.00600000	         -0.14368400	          0.00000000	          0.05070800	          0.00000000	          0.00000000	          0.00000000	          0.00000000	          0.71056300	          0.00000000	         -0.24895500	          0.00000000	          0.00000000	          0.00000000	
          0.32950000	        -39.69527000	        533.85483400	        -28.85499600	          0.28007100	          0.00600000	         -0.14370600	          0.00000000	          0.03622900	          0.00000000	          0.00000000	          0.00000000	          0.00000000	          0.71056300	          0.00000000	         -0.24895500	          0.00000000	          0.00000000	          0.00000000	
          0.33000000	        -39.48139000	        533.24055100	        -28.78772100	          0.28027100	          0.00600000	         -0.14372900	          0.00000000	          0.02167200	          0.00000000	          0.00000000	          0.00000000	          0.00000000	          0.71056300	          0.00000000	         -0.24895500	          0.00000000	          0.00000000	          0.00000000	
          0.33050000	        -39.26762700	        532.63042100	        -28.72049900	          0.28047200	          0.00600000	         -0.14375100	          0.00000000	          0.00703600	          0.00000000	          0.00000000	          0.00000000	          0.00000000	          0.71056300	          0.00000000	         -0.24895500	          0.00000000	          0.00000000	          0.00000000	
          0.33100000	        -39.05398000	        532.02449500	        -28.65333500	          0.28067300	          0.00600000	         -0.14377400	          0.00000000	         -0.00767800	          0.00000000	          0.00000000	          0.00000000	          0.00000000	          0.71056300	          0.00000000	         -0.24895500	          0.00000000	          0.00000000	          0.00000000	
          0.33150000	        -38.84044700	        531.42282100	        -28.58623600	          0.28087300	          0.00600000	         -0.14379700	          0.00000000	         -0.02246900	          0.00000000	          0.00000000	          0.00000000	          0.00000000	          0.71056300	          0.00000000	         -0.24895500	          0.00000000	          0.00000000	          0.00000000	
          0.33200000	        -38.62702800	        530.82544900	        -28.51920700	          0.28107300	          0.00600000	         -0.14382000	          0.00000000	         -0.03733700	          0.00000000	          0.00000000	          0.00000000	          0.00000000	          0.71056300	          0.00000000	         -0.24895500	          0.00000000	          0.00000000	          0.00000000	
          0.33250000	        -38.41371900	        530.23242700	        -28.45225500	          0.28127300	          0.00600000	         -0.14384300	          0.00000000	         -0.05228300	          0.00000000	          0.00000000	          0.00000000	          0.00000000	          0.71056300	          0.00000000	         -0.24895500	          0.00000000	          0.00000000	          0.00000000	
          0.33300000	        -38.20052100	        529.64380400	        -28.38538600	          0.28147300	          0.00600000	         -0.14386600	          0.00000000	         -0.06730400	          0.00000000	          0.00000000	          0.00000000	          0.00000000	          0.71056300	          0.00000000	         -0.24895500	          0.00000000	          0.00000000	          0.00000000	
          0.33350000	        -37.98743200	        529.05962500	        -28.31860600	          0.28167200	          0.00600000	         -0.14389000	          0.00000000	         -0.08240200	          0.00000000	          0.00000000	          0.00000000	          0.00000000	          0.71056300	          0.00000000	         -0.24895500	          0.00000000	          0.00000000	          0.00000000	
          0.33400000	        -37.77444900	        528.47993900	        -28.25192100	          0.28187200	          0.00600000	         -0.14391400	          0.00000000	         -0.09757600	          0.00000000	          0.00000000	          0.00000000	          0.00000000	          0.71056300	          0.00000000	         -0.24895500	          0.00000000	          0.00000000	          0.00000000	
          0.33450000	        -37.56157100	        527.90479200	        -28.18533800	          0.28207100	          0.00600000	         -0.14393800	          0.00000000	         -0.11282500	          0.00000000	          0.00000000	          0.00000000	          0.00000000	          0.71056300	          0.00000000	         -0.24895500	          0.00000000	          0.00000000	          0.00000000	
          0.33500000	        -37.34879700	        527.33422900	        -28.11886200	          0.28227000	          0.00600000	         -0.14396200	          0.00000000	         -0.12815000	          0.00000000	          0.00000000	          0.00000000	          0.00000000	          0.71056300	          0.00000000	         -0.24895500	          0.00000000	          0.00000000	          0.00000000	
          0.33550000	        -37.13612400	        526.76829500	        -28.05250000	          0.28246900	          0.00600000	         -0.14398600	          0.00000000	         -0.14354900	          0.00000000	          0.00000000	          0.00000000	          0.00000000	          0.71056300	          0.00000000	         -0.24895500	          0.00000000	          0.00000000	          0.00000000	
          0.33600000	        -36.92355000	        526.20703700	        -27.98625900	          0.28266800	          0.00600000	         -0.14401000	          0.00000000	         -0.15902200	          0.00000000	          0.00000000	          0.00000000	          0.00000000	          0.71056300	          0.00000000	         -0.24895500	          0.00000000	          0.00000000	          0.00000000	
          0.33650000	        -36.71107300	        525.65049600	        -27.92014300	          0.28286600	          0.00600000	         -0.14403500	          0.00000000	         -0.17456900	          0.00000000	          0.00000000	          0.00000000	          0.00000000	          0.71056300	          0.00000000	         -0.24895500	          0.00000000	          0.00000000	          0.00000000	
          0.33700000	        -36.49869100	        525.09871900	        -27.85416100	          0.28306400	          0.00600000	         -0.14405900	          0.00000000	         -0.19019000	          0.00000000	          0.00000000	          0.00000000	          0.00000000	          0.71056300	          0.00000000	         -0.24895500	          0.00000000	          0.00000000	          0.00000000	
          0.33750000	        -36.28640300	        524.55174700	        -27.78831600	          0.28326300	          0.00600000	         -0.14408400	          0.00000000	         -0.20588300	          0.00000000	          0.00000000	          0.00000000	          0.00000000	          0.71056300	          0.00000000	         -0.24895500	          0.00000000	          0.00000000	          0.00000000	
          0.33800000	        -36.07420500	        524.00962300	        -27.72261700	          0.28346000	          0.00600000	         -0.14410900	          0.00000000	         -0.22165000	          0.00000000	          0.00000000	          0.00000000	          0.00000000	          0.71056300	          0.00000000	         -0.24895500	          0.00000000	          0.00000000	          0.00000000	
          0.33850000	        -35.86209600	        523.47239100	        -27.65706900	          0.28365800	          0.00600000	         -0.14413400	          0.00000000	         -0.23748900	          0.00000000	          0.00000000	          0.00000000	          0.00000000	          0.71056300	          0.00000000	         -0.24895500	          0.00000000	          0.00000000	          0.00000000	
          0.33900000	        -35.65007300	        522.94009000	        -27.59167700	          0.28385500	          0.00600000	         -0.14416000	          0.00000000	         -0.25340000	          0.00000000	          0.00000000	          0.00000000	          0.00000000	          0.71056300	          0.00000000	         -0.24895500	          0.00000000	          0.00000000	          0.00000000	
          0.33950000	        -35.43813400	        522.41276400	        -27.52644900	          0.28405300	          0.00600000	         -0.14418500	          0.00000000	         -0.26938200	          0.00000000	          0.00000000	          0.00000000	          0.00000000	          0.71056300	          0.00000000	         -0.24895500	          0.00000000	          0.00000000	          0.00000000	
          0.34000000	        -35.22627600	        521.89045100	        -27.46139100	          0.28425000	          0.00600000	         -0.14421100	          0.00000000	         -0.28543600	          0.00000000	          0.00000000	          0.00000000	          0.00000000	          0.71056300	          0.00000000	         -0.24895500	          0.00000000	          0.00000000	          0.00000000	
